<mxfile host="app.diagrams.net" agent="Mozilla/5.0 (X11; Ubuntu; Linux x86_64; rv:139.0) Gecko/20100101 Firefox/139.0" version="27.1.6">
  <diagram name="Page-1" id="w3V0Ukt2lIMnZeytWCGI">
    <mxGraphModel dx="2239" dy="785" grid="1" gridSize="10" guides="1" tooltips="1" connect="1" arrows="1" fold="1" page="1" pageScale="1" pageWidth="850" pageHeight="1100" math="0" shadow="1">
      <root>
        <mxCell id="0" />
        <mxCell id="1" parent="0" />
        <mxCell id="1JcprI2mjeJq7GM3SsAT-5" value="Professeur" style="swimlane;fontStyle=1;align=center;verticalAlign=top;childLayout=stackLayout;horizontal=1;startSize=26;horizontalStack=0;resizeParent=1;resizeParentMax=0;resizeLast=0;collapsible=1;marginBottom=0;whiteSpace=wrap;html=1;labelBackgroundColor=none;fillColor=#F2CC8F;strokeColor=#E07A5F;fontColor=#393C56;rounded=0;" vertex="1" parent="1">
          <mxGeometry x="-150" y="50" width="160" height="216" as="geometry" />
        </mxCell>
        <mxCell id="1JcprI2mjeJq7GM3SsAT-135" value="+ profId: String" style="text;strokeColor=none;fillColor=none;align=left;verticalAlign=top;spacingLeft=4;spacingRight=4;overflow=hidden;rotatable=0;points=[[0,0.5],[1,0.5]];portConstraint=eastwest;whiteSpace=wrap;html=1;labelBackgroundColor=none;fontColor=#393C56;rounded=0;" vertex="1" parent="1JcprI2mjeJq7GM3SsAT-5">
          <mxGeometry y="26" width="160" height="26" as="geometry" />
        </mxCell>
        <mxCell id="1JcprI2mjeJq7GM3SsAT-6" value="+ nom: String" style="text;strokeColor=none;fillColor=none;align=left;verticalAlign=top;spacingLeft=4;spacingRight=4;overflow=hidden;rotatable=0;points=[[0,0.5],[1,0.5]];portConstraint=eastwest;whiteSpace=wrap;html=1;labelBackgroundColor=none;fontColor=#393C56;rounded=0;" vertex="1" parent="1JcprI2mjeJq7GM3SsAT-5">
          <mxGeometry y="52" width="160" height="26" as="geometry" />
        </mxCell>
        <mxCell id="1JcprI2mjeJq7GM3SsAT-29" value="+ email: String" style="text;strokeColor=none;fillColor=none;align=left;verticalAlign=top;spacingLeft=4;spacingRight=4;overflow=hidden;rotatable=0;points=[[0,0.5],[1,0.5]];portConstraint=eastwest;whiteSpace=wrap;html=1;labelBackgroundColor=none;fontColor=#393C56;rounded=0;" vertex="1" parent="1JcprI2mjeJq7GM3SsAT-5">
          <mxGeometry y="78" width="160" height="26" as="geometry" />
        </mxCell>
        <mxCell id="1JcprI2mjeJq7GM3SsAT-30" value="+ motDePass: String" style="text;strokeColor=none;fillColor=none;align=left;verticalAlign=top;spacingLeft=4;spacingRight=4;overflow=hidden;rotatable=0;points=[[0,0.5],[1,0.5]];portConstraint=eastwest;whiteSpace=wrap;html=1;labelBackgroundColor=none;fontColor=#393C56;rounded=0;" vertex="1" parent="1JcprI2mjeJq7GM3SsAT-5">
          <mxGeometry y="104" width="160" height="26" as="geometry" />
        </mxCell>
        <mxCell id="1JcprI2mjeJq7GM3SsAT-7" value="" style="line;strokeWidth=1;fillColor=none;align=left;verticalAlign=middle;spacingTop=-1;spacingLeft=3;spacingRight=3;rotatable=0;labelPosition=right;points=[];portConstraint=eastwest;strokeColor=#E07A5F;labelBackgroundColor=none;fontColor=#393C56;rounded=0;" vertex="1" parent="1JcprI2mjeJq7GM3SsAT-5">
          <mxGeometry y="130" width="160" height="8" as="geometry" />
        </mxCell>
        <mxCell id="1JcprI2mjeJq7GM3SsAT-8" value="+ method(type): type" style="text;strokeColor=none;fillColor=none;align=left;verticalAlign=top;spacingLeft=4;spacingRight=4;overflow=hidden;rotatable=0;points=[[0,0.5],[1,0.5]];portConstraint=eastwest;whiteSpace=wrap;html=1;labelBackgroundColor=none;fontColor=#393C56;rounded=0;" vertex="1" parent="1JcprI2mjeJq7GM3SsAT-5">
          <mxGeometry y="138" width="160" height="26" as="geometry" />
        </mxCell>
        <mxCell id="1JcprI2mjeJq7GM3SsAT-33" value="+ method(type): type" style="text;strokeColor=none;fillColor=none;align=left;verticalAlign=top;spacingLeft=4;spacingRight=4;overflow=hidden;rotatable=0;points=[[0,0.5],[1,0.5]];portConstraint=eastwest;whiteSpace=wrap;html=1;labelBackgroundColor=none;fontColor=#393C56;rounded=0;" vertex="1" parent="1JcprI2mjeJq7GM3SsAT-5">
          <mxGeometry y="164" width="160" height="26" as="geometry" />
        </mxCell>
        <mxCell id="1JcprI2mjeJq7GM3SsAT-32" value="+ method(type): type" style="text;strokeColor=none;fillColor=none;align=left;verticalAlign=top;spacingLeft=4;spacingRight=4;overflow=hidden;rotatable=0;points=[[0,0.5],[1,0.5]];portConstraint=eastwest;whiteSpace=wrap;html=1;labelBackgroundColor=none;fontColor=#393C56;rounded=0;" vertex="1" parent="1JcprI2mjeJq7GM3SsAT-5">
          <mxGeometry y="190" width="160" height="26" as="geometry" />
        </mxCell>
        <mxCell id="1JcprI2mjeJq7GM3SsAT-9" value="Etudiant" style="swimlane;fontStyle=1;align=center;verticalAlign=top;childLayout=stackLayout;horizontal=1;startSize=26;horizontalStack=0;resizeParent=1;resizeParentMax=0;resizeLast=0;collapsible=1;marginBottom=0;whiteSpace=wrap;html=1;labelBackgroundColor=none;fillColor=#F2CC8F;strokeColor=#E07A5F;fontColor=#393C56;rounded=0;" vertex="1" parent="1">
          <mxGeometry x="-180" y="386" width="160" height="190" as="geometry" />
        </mxCell>
        <mxCell id="1JcprI2mjeJq7GM3SsAT-134" value="+ etuId: String" style="text;strokeColor=none;fillColor=none;align=left;verticalAlign=top;spacingLeft=4;spacingRight=4;overflow=hidden;rotatable=0;points=[[0,0.5],[1,0.5]];portConstraint=eastwest;whiteSpace=wrap;html=1;labelBackgroundColor=none;fontColor=#393C56;rounded=0;" vertex="1" parent="1JcprI2mjeJq7GM3SsAT-9">
          <mxGeometry y="26" width="160" height="26" as="geometry" />
        </mxCell>
        <mxCell id="1JcprI2mjeJq7GM3SsAT-10" value="+ nom: String" style="text;strokeColor=none;fillColor=none;align=left;verticalAlign=top;spacingLeft=4;spacingRight=4;overflow=hidden;rotatable=0;points=[[0,0.5],[1,0.5]];portConstraint=eastwest;whiteSpace=wrap;html=1;labelBackgroundColor=none;fontColor=#393C56;rounded=0;" vertex="1" parent="1JcprI2mjeJq7GM3SsAT-9">
          <mxGeometry y="52" width="160" height="26" as="geometry" />
        </mxCell>
        <mxCell id="1JcprI2mjeJq7GM3SsAT-31" value="+ email: String" style="text;strokeColor=none;fillColor=none;align=left;verticalAlign=top;spacingLeft=4;spacingRight=4;overflow=hidden;rotatable=0;points=[[0,0.5],[1,0.5]];portConstraint=eastwest;whiteSpace=wrap;html=1;labelBackgroundColor=none;fontColor=#393C56;rounded=0;" vertex="1" parent="1JcprI2mjeJq7GM3SsAT-9">
          <mxGeometry y="78" width="160" height="26" as="geometry" />
        </mxCell>
        <mxCell id="1JcprI2mjeJq7GM3SsAT-11" value="" style="line;strokeWidth=1;fillColor=none;align=left;verticalAlign=middle;spacingTop=-1;spacingLeft=3;spacingRight=3;rotatable=0;labelPosition=right;points=[];portConstraint=eastwest;strokeColor=#E07A5F;labelBackgroundColor=none;fontColor=#393C56;rounded=0;" vertex="1" parent="1JcprI2mjeJq7GM3SsAT-9">
          <mxGeometry y="104" width="160" height="8" as="geometry" />
        </mxCell>
        <mxCell id="1JcprI2mjeJq7GM3SsAT-12" value="+ method(type): type" style="text;strokeColor=none;fillColor=none;align=left;verticalAlign=top;spacingLeft=4;spacingRight=4;overflow=hidden;rotatable=0;points=[[0,0.5],[1,0.5]];portConstraint=eastwest;whiteSpace=wrap;html=1;labelBackgroundColor=none;fontColor=#393C56;rounded=0;" vertex="1" parent="1JcprI2mjeJq7GM3SsAT-9">
          <mxGeometry y="112" width="160" height="26" as="geometry" />
        </mxCell>
        <mxCell id="1JcprI2mjeJq7GM3SsAT-35" value="+ method(type): type" style="text;strokeColor=none;fillColor=none;align=left;verticalAlign=top;spacingLeft=4;spacingRight=4;overflow=hidden;rotatable=0;points=[[0,0.5],[1,0.5]];portConstraint=eastwest;whiteSpace=wrap;html=1;labelBackgroundColor=none;fontColor=#393C56;rounded=0;" vertex="1" parent="1JcprI2mjeJq7GM3SsAT-9">
          <mxGeometry y="138" width="160" height="26" as="geometry" />
        </mxCell>
        <mxCell id="1JcprI2mjeJq7GM3SsAT-34" value="+ method(type): type" style="text;strokeColor=none;fillColor=none;align=left;verticalAlign=top;spacingLeft=4;spacingRight=4;overflow=hidden;rotatable=0;points=[[0,0.5],[1,0.5]];portConstraint=eastwest;whiteSpace=wrap;html=1;labelBackgroundColor=none;fontColor=#393C56;rounded=0;" vertex="1" parent="1JcprI2mjeJq7GM3SsAT-9">
          <mxGeometry y="164" width="160" height="26" as="geometry" />
        </mxCell>
        <mxCell id="1JcprI2mjeJq7GM3SsAT-36" value="Examen" style="swimlane;fontStyle=1;align=center;verticalAlign=top;childLayout=stackLayout;horizontal=1;startSize=26;horizontalStack=0;resizeParent=1;resizeParentMax=0;resizeLast=0;collapsible=1;marginBottom=0;whiteSpace=wrap;html=1;labelBackgroundColor=none;fillColor=#F2CC8F;strokeColor=#E07A5F;fontColor=#393C56;rounded=0;shadow=0;" vertex="1" parent="1">
          <mxGeometry x="360" y="20" width="200" height="238" as="geometry" />
        </mxCell>
        <mxCell id="1JcprI2mjeJq7GM3SsAT-88" value="+ examId: String" style="text;strokeColor=none;fillColor=none;align=left;verticalAlign=top;spacingLeft=4;spacingRight=4;overflow=hidden;rotatable=0;points=[[0,0.5],[1,0.5]];portConstraint=eastwest;whiteSpace=wrap;html=1;labelBackgroundColor=none;fontColor=#393C56;rounded=0;" vertex="1" parent="1JcprI2mjeJq7GM3SsAT-36">
          <mxGeometry y="26" width="200" height="26" as="geometry" />
        </mxCell>
        <mxCell id="1JcprI2mjeJq7GM3SsAT-37" value="+ nom: String" style="text;strokeColor=none;fillColor=none;align=left;verticalAlign=top;spacingLeft=4;spacingRight=4;overflow=hidden;rotatable=0;points=[[0,0.5],[1,0.5]];portConstraint=eastwest;whiteSpace=wrap;html=1;labelBackgroundColor=none;fontColor=#393C56;rounded=0;" vertex="1" parent="1JcprI2mjeJq7GM3SsAT-36">
          <mxGeometry y="52" width="200" height="22" as="geometry" />
        </mxCell>
        <mxCell id="1JcprI2mjeJq7GM3SsAT-38" value="+ description: String" style="text;strokeColor=none;fillColor=none;align=left;verticalAlign=top;spacingLeft=4;spacingRight=4;overflow=hidden;rotatable=0;points=[[0,0.5],[1,0.5]];portConstraint=eastwest;whiteSpace=wrap;html=1;labelBackgroundColor=none;fontColor=#393C56;rounded=0;" vertex="1" parent="1JcprI2mjeJq7GM3SsAT-36">
          <mxGeometry y="74" width="200" height="26" as="geometry" />
        </mxCell>
        <mxCell id="1JcprI2mjeJq7GM3SsAT-87" value="+ lien: String" style="text;strokeColor=none;fillColor=none;align=left;verticalAlign=top;spacingLeft=4;spacingRight=4;overflow=hidden;rotatable=0;points=[[0,0.5],[1,0.5]];portConstraint=eastwest;whiteSpace=wrap;html=1;labelBackgroundColor=none;fontColor=#393C56;rounded=0;" vertex="1" parent="1JcprI2mjeJq7GM3SsAT-36">
          <mxGeometry y="100" width="200" height="26" as="geometry" />
        </mxCell>
        <mxCell id="1JcprI2mjeJq7GM3SsAT-86" value="+ listeQuestions: Liste&amp;lt;Question&amp;gt;" style="text;strokeColor=none;fillColor=none;align=left;verticalAlign=top;spacingLeft=4;spacingRight=4;overflow=hidden;rotatable=0;points=[[0,0.5],[1,0.5]];portConstraint=eastwest;whiteSpace=wrap;html=1;labelBackgroundColor=none;fontColor=#393C56;rounded=0;" vertex="1" parent="1JcprI2mjeJq7GM3SsAT-36">
          <mxGeometry y="126" width="200" height="26" as="geometry" />
        </mxCell>
        <mxCell id="1JcprI2mjeJq7GM3SsAT-39" value="" style="line;strokeWidth=1;fillColor=none;align=left;verticalAlign=middle;spacingTop=-1;spacingLeft=3;spacingRight=3;rotatable=0;labelPosition=right;points=[];portConstraint=eastwest;strokeColor=#E07A5F;labelBackgroundColor=none;fontColor=#393C56;rounded=0;" vertex="1" parent="1JcprI2mjeJq7GM3SsAT-36">
          <mxGeometry y="152" width="200" height="8" as="geometry" />
        </mxCell>
        <mxCell id="1JcprI2mjeJq7GM3SsAT-40" value="+ method(type): type" style="text;strokeColor=none;fillColor=none;align=left;verticalAlign=top;spacingLeft=4;spacingRight=4;overflow=hidden;rotatable=0;points=[[0,0.5],[1,0.5]];portConstraint=eastwest;whiteSpace=wrap;html=1;labelBackgroundColor=none;fontColor=#393C56;rounded=0;" vertex="1" parent="1JcprI2mjeJq7GM3SsAT-36">
          <mxGeometry y="160" width="200" height="26" as="geometry" />
        </mxCell>
        <mxCell id="1JcprI2mjeJq7GM3SsAT-41" value="+ method(type): type" style="text;strokeColor=none;fillColor=none;align=left;verticalAlign=top;spacingLeft=4;spacingRight=4;overflow=hidden;rotatable=0;points=[[0,0.5],[1,0.5]];portConstraint=eastwest;whiteSpace=wrap;html=1;labelBackgroundColor=none;fontColor=#393C56;rounded=0;" vertex="1" parent="1JcprI2mjeJq7GM3SsAT-36">
          <mxGeometry y="186" width="200" height="26" as="geometry" />
        </mxCell>
        <mxCell id="1JcprI2mjeJq7GM3SsAT-42" value="+ method(type): type" style="text;strokeColor=none;fillColor=none;align=left;verticalAlign=top;spacingLeft=4;spacingRight=4;overflow=hidden;rotatable=0;points=[[0,0.5],[1,0.5]];portConstraint=eastwest;whiteSpace=wrap;html=1;labelBackgroundColor=none;fontColor=#393C56;rounded=0;" vertex="1" parent="1JcprI2mjeJq7GM3SsAT-36">
          <mxGeometry y="212" width="200" height="26" as="geometry" />
        </mxCell>
        <mxCell id="1JcprI2mjeJq7GM3SsAT-43" value="Question" style="swimlane;fontStyle=1;align=center;verticalAlign=top;childLayout=stackLayout;horizontal=1;startSize=26;horizontalStack=0;resizeParent=1;resizeParentMax=0;resizeLast=0;collapsible=1;marginBottom=0;whiteSpace=wrap;html=1;labelBackgroundColor=none;fillColor=#F2CC8F;strokeColor=#E07A5F;fontColor=#393C56;rounded=0;" vertex="1" parent="1">
          <mxGeometry x="390" y="509" width="160" height="242" as="geometry" />
        </mxCell>
        <mxCell id="1JcprI2mjeJq7GM3SsAT-133" value="+ questionId: String" style="text;strokeColor=none;fillColor=none;align=left;verticalAlign=top;spacingLeft=4;spacingRight=4;overflow=hidden;rotatable=0;points=[[0,0.5],[1,0.5]];portConstraint=eastwest;whiteSpace=wrap;html=1;labelBackgroundColor=none;fontColor=#393C56;rounded=0;" vertex="1" parent="1JcprI2mjeJq7GM3SsAT-43">
          <mxGeometry y="26" width="160" height="26" as="geometry" />
        </mxCell>
        <mxCell id="1JcprI2mjeJq7GM3SsAT-44" value="+ text: String" style="text;strokeColor=none;fillColor=none;align=left;verticalAlign=top;spacingLeft=4;spacingRight=4;overflow=hidden;rotatable=0;points=[[0,0.5],[1,0.5]];portConstraint=eastwest;whiteSpace=wrap;html=1;labelBackgroundColor=none;fontColor=#393C56;rounded=0;" vertex="1" parent="1JcprI2mjeJq7GM3SsAT-43">
          <mxGeometry y="52" width="160" height="26" as="geometry" />
        </mxCell>
        <mxCell id="1JcprI2mjeJq7GM3SsAT-45" value="+ image: String" style="text;strokeColor=none;fillColor=none;align=left;verticalAlign=top;spacingLeft=4;spacingRight=4;overflow=hidden;rotatable=0;points=[[0,0.5],[1,0.5]];portConstraint=eastwest;whiteSpace=wrap;html=1;labelBackgroundColor=none;fontColor=#393C56;rounded=0;" vertex="1" parent="1JcprI2mjeJq7GM3SsAT-43">
          <mxGeometry y="78" width="160" height="26" as="geometry" />
        </mxCell>
        <mxCell id="1JcprI2mjeJq7GM3SsAT-131" value="+ type: QuestionTypeEnum" style="text;strokeColor=none;fillColor=none;align=left;verticalAlign=top;spacingLeft=4;spacingRight=4;overflow=hidden;rotatable=0;points=[[0,0.5],[1,0.5]];portConstraint=eastwest;whiteSpace=wrap;html=1;labelBackgroundColor=none;fontColor=#393C56;rounded=0;" vertex="1" parent="1JcprI2mjeJq7GM3SsAT-43">
          <mxGeometry y="104" width="160" height="26" as="geometry" />
        </mxCell>
        <mxCell id="1JcprI2mjeJq7GM3SsAT-132" value="+ duree: integer" style="text;strokeColor=none;fillColor=none;align=left;verticalAlign=top;spacingLeft=4;spacingRight=4;overflow=hidden;rotatable=0;points=[[0,0.5],[1,0.5]];portConstraint=eastwest;whiteSpace=wrap;html=1;labelBackgroundColor=none;fontColor=#393C56;rounded=0;" vertex="1" parent="1JcprI2mjeJq7GM3SsAT-43">
          <mxGeometry y="130" width="160" height="26" as="geometry" />
        </mxCell>
        <mxCell id="1JcprI2mjeJq7GM3SsAT-46" value="" style="line;strokeWidth=1;fillColor=none;align=left;verticalAlign=middle;spacingTop=-1;spacingLeft=3;spacingRight=3;rotatable=0;labelPosition=right;points=[];portConstraint=eastwest;strokeColor=#E07A5F;labelBackgroundColor=none;fontColor=#393C56;rounded=0;" vertex="1" parent="1JcprI2mjeJq7GM3SsAT-43">
          <mxGeometry y="156" width="160" height="8" as="geometry" />
        </mxCell>
        <mxCell id="1JcprI2mjeJq7GM3SsAT-47" value="+ method(type): type" style="text;strokeColor=none;fillColor=none;align=left;verticalAlign=top;spacingLeft=4;spacingRight=4;overflow=hidden;rotatable=0;points=[[0,0.5],[1,0.5]];portConstraint=eastwest;whiteSpace=wrap;html=1;labelBackgroundColor=none;fontColor=#393C56;rounded=0;" vertex="1" parent="1JcprI2mjeJq7GM3SsAT-43">
          <mxGeometry y="164" width="160" height="26" as="geometry" />
        </mxCell>
        <mxCell id="1JcprI2mjeJq7GM3SsAT-48" value="+ method(type): type" style="text;strokeColor=none;fillColor=none;align=left;verticalAlign=top;spacingLeft=4;spacingRight=4;overflow=hidden;rotatable=0;points=[[0,0.5],[1,0.5]];portConstraint=eastwest;whiteSpace=wrap;html=1;labelBackgroundColor=none;fontColor=#393C56;rounded=0;" vertex="1" parent="1JcprI2mjeJq7GM3SsAT-43">
          <mxGeometry y="190" width="160" height="26" as="geometry" />
        </mxCell>
        <mxCell id="1JcprI2mjeJq7GM3SsAT-49" value="+ method(type): type" style="text;strokeColor=none;fillColor=none;align=left;verticalAlign=top;spacingLeft=4;spacingRight=4;overflow=hidden;rotatable=0;points=[[0,0.5],[1,0.5]];portConstraint=eastwest;whiteSpace=wrap;html=1;labelBackgroundColor=none;fontColor=#393C56;rounded=0;" vertex="1" parent="1JcprI2mjeJq7GM3SsAT-43">
          <mxGeometry y="216" width="160" height="26" as="geometry" />
        </mxCell>
        <mxCell id="1JcprI2mjeJq7GM3SsAT-50" value="Reponse" style="swimlane;fontStyle=1;align=center;verticalAlign=top;childLayout=stackLayout;horizontal=1;startSize=26;horizontalStack=0;resizeParent=1;resizeParentMax=0;resizeLast=0;collapsible=1;marginBottom=0;whiteSpace=wrap;html=1;labelBackgroundColor=none;fillColor=#F2CC8F;strokeColor=#E07A5F;fontColor=#393C56;rounded=0;" vertex="1" parent="1">
          <mxGeometry x="610" y="160" width="160" height="190" as="geometry" />
        </mxCell>
        <mxCell id="1JcprI2mjeJq7GM3SsAT-136" value="+ resId: String" style="text;strokeColor=none;fillColor=none;align=left;verticalAlign=top;spacingLeft=4;spacingRight=4;overflow=hidden;rotatable=0;points=[[0,0.5],[1,0.5]];portConstraint=eastwest;whiteSpace=wrap;html=1;labelBackgroundColor=none;fontColor=#393C56;rounded=0;" vertex="1" parent="1JcprI2mjeJq7GM3SsAT-50">
          <mxGeometry y="26" width="160" height="26" as="geometry" />
        </mxCell>
        <mxCell id="1JcprI2mjeJq7GM3SsAT-51" value="+ text: String" style="text;strokeColor=none;fillColor=none;align=left;verticalAlign=top;spacingLeft=4;spacingRight=4;overflow=hidden;rotatable=0;points=[[0,0.5],[1,0.5]];portConstraint=eastwest;whiteSpace=wrap;html=1;labelBackgroundColor=none;fontColor=#393C56;rounded=0;" vertex="1" parent="1JcprI2mjeJq7GM3SsAT-50">
          <mxGeometry y="52" width="160" height="26" as="geometry" />
        </mxCell>
        <mxCell id="1JcprI2mjeJq7GM3SsAT-140" value="+ correct: boolean" style="text;strokeColor=none;fillColor=none;align=left;verticalAlign=top;spacingLeft=4;spacingRight=4;overflow=hidden;rotatable=0;points=[[0,0.5],[1,0.5]];portConstraint=eastwest;whiteSpace=wrap;html=1;labelBackgroundColor=none;fontColor=#393C56;rounded=0;" vertex="1" parent="1JcprI2mjeJq7GM3SsAT-50">
          <mxGeometry y="78" width="160" height="26" as="geometry" />
        </mxCell>
        <mxCell id="1JcprI2mjeJq7GM3SsAT-53" value="" style="line;strokeWidth=1;fillColor=none;align=left;verticalAlign=middle;spacingTop=-1;spacingLeft=3;spacingRight=3;rotatable=0;labelPosition=right;points=[];portConstraint=eastwest;strokeColor=#E07A5F;labelBackgroundColor=none;fontColor=#393C56;rounded=0;" vertex="1" parent="1JcprI2mjeJq7GM3SsAT-50">
          <mxGeometry y="104" width="160" height="8" as="geometry" />
        </mxCell>
        <mxCell id="1JcprI2mjeJq7GM3SsAT-54" value="+ method(type): type" style="text;strokeColor=none;fillColor=none;align=left;verticalAlign=top;spacingLeft=4;spacingRight=4;overflow=hidden;rotatable=0;points=[[0,0.5],[1,0.5]];portConstraint=eastwest;whiteSpace=wrap;html=1;labelBackgroundColor=none;fontColor=#393C56;rounded=0;" vertex="1" parent="1JcprI2mjeJq7GM3SsAT-50">
          <mxGeometry y="112" width="160" height="26" as="geometry" />
        </mxCell>
        <mxCell id="1JcprI2mjeJq7GM3SsAT-55" value="+ method(type): type" style="text;strokeColor=none;fillColor=none;align=left;verticalAlign=top;spacingLeft=4;spacingRight=4;overflow=hidden;rotatable=0;points=[[0,0.5],[1,0.5]];portConstraint=eastwest;whiteSpace=wrap;html=1;labelBackgroundColor=none;fontColor=#393C56;rounded=0;" vertex="1" parent="1JcprI2mjeJq7GM3SsAT-50">
          <mxGeometry y="138" width="160" height="26" as="geometry" />
        </mxCell>
        <mxCell id="1JcprI2mjeJq7GM3SsAT-56" value="+ method(type): type" style="text;strokeColor=none;fillColor=none;align=left;verticalAlign=top;spacingLeft=4;spacingRight=4;overflow=hidden;rotatable=0;points=[[0,0.5],[1,0.5]];portConstraint=eastwest;whiteSpace=wrap;html=1;labelBackgroundColor=none;fontColor=#393C56;rounded=0;" vertex="1" parent="1JcprI2mjeJq7GM3SsAT-50">
          <mxGeometry y="164" width="160" height="26" as="geometry" />
        </mxCell>
        <mxCell id="1JcprI2mjeJq7GM3SsAT-57" value="" style="endArrow=open;html=1;endSize=12;startArrow=diamondThin;startSize=14;startFill=1;edgeStyle=orthogonalEdgeStyle;align=left;verticalAlign=bottom;strokeColor=default;fontColor=#393C56;fillColor=#F2CC8F;fontSize=20;fontStyle=1;labelBackgroundColor=none;" edge="1" parent="1" target="1JcprI2mjeJq7GM3SsAT-43">
          <mxGeometry x="-0.7037" y="30" relative="1" as="geometry">
            <mxPoint x="420" y="260" as="sourcePoint" />
            <mxPoint x="310" y="250" as="targetPoint" />
            <Array as="points">
              <mxPoint x="430" y="260" />
            </Array>
            <mxPoint as="offset" />
          </mxGeometry>
        </mxCell>
        <mxCell id="1JcprI2mjeJq7GM3SsAT-89" value="1" style="edgeLabel;html=1;align=center;verticalAlign=middle;resizable=0;points=[];strokeColor=#E07A5F;fontColor=#393C56;fillColor=#F2CC8F;fontSize=25;fontStyle=1" vertex="1" connectable="0" parent="1JcprI2mjeJq7GM3SsAT-57">
          <mxGeometry x="-0.6741" y="28" relative="1" as="geometry">
            <mxPoint as="offset" />
          </mxGeometry>
        </mxCell>
        <mxCell id="1JcprI2mjeJq7GM3SsAT-67" value="" style="endArrow=none;html=1;edgeStyle=orthogonalEdgeStyle;strokeColor=#E07A5F;fontColor=#393C56;fillColor=#F2CC8F;exitX=1;exitY=0.5;exitDx=0;exitDy=0;entryX=0;entryY=0.5;entryDx=0;entryDy=0;" edge="1" parent="1" source="1JcprI2mjeJq7GM3SsAT-8" target="1JcprI2mjeJq7GM3SsAT-86">
          <mxGeometry relative="1" as="geometry">
            <mxPoint x="120" y="160" as="sourcePoint" />
            <mxPoint x="280" y="160" as="targetPoint" />
          </mxGeometry>
        </mxCell>
        <mxCell id="1JcprI2mjeJq7GM3SsAT-68" value="1" style="edgeLabel;resizable=0;html=1;align=left;verticalAlign=bottom;strokeColor=#E07A5F;fontColor=#393C56;fillColor=#F2CC8F;labelBackgroundColor=none;fontSize=20;fontStyle=1" connectable="0" vertex="1" parent="1JcprI2mjeJq7GM3SsAT-67">
          <mxGeometry x="-1" relative="1" as="geometry">
            <mxPoint x="20" y="-15" as="offset" />
          </mxGeometry>
        </mxCell>
        <mxCell id="1JcprI2mjeJq7GM3SsAT-70" value="0..*" style="text;html=1;align=center;verticalAlign=middle;resizable=0;points=[];autosize=1;strokeColor=none;fillColor=none;fontColor=#393C56;fontSize=25;fontStyle=1" vertex="1" parent="1">
          <mxGeometry x="301" y="103" width="60" height="40" as="geometry" />
        </mxCell>
        <mxCell id="1JcprI2mjeJq7GM3SsAT-74" value="" style="endArrow=none;html=1;edgeStyle=orthogonalEdgeStyle;strokeColor=#E07A5F;fontColor=#393C56;fillColor=#F2CC8F;entryX=0.151;entryY=1.06;entryDx=0;entryDy=0;entryPerimeter=0;exitX=1;exitY=0.5;exitDx=0;exitDy=0;" edge="1" parent="1" source="1JcprI2mjeJq7GM3SsAT-35" target="1JcprI2mjeJq7GM3SsAT-42">
          <mxGeometry relative="1" as="geometry">
            <mxPoint x="250" y="340" as="sourcePoint" />
            <mxPoint x="410" y="340" as="targetPoint" />
            <Array as="points">
              <mxPoint x="210" y="435" />
              <mxPoint x="210" y="300" />
              <mxPoint x="390" y="300" />
            </Array>
          </mxGeometry>
        </mxCell>
        <mxCell id="1JcprI2mjeJq7GM3SsAT-75" value="" style="edgeLabel;resizable=0;html=1;align=left;verticalAlign=bottom;strokeColor=#E07A5F;fontColor=#393C56;fillColor=#F2CC8F;" connectable="0" vertex="1" parent="1JcprI2mjeJq7GM3SsAT-74">
          <mxGeometry x="-1" relative="1" as="geometry">
            <mxPoint x="20" y="-15" as="offset" />
          </mxGeometry>
        </mxCell>
        <mxCell id="1JcprI2mjeJq7GM3SsAT-79" value="1..*" style="text;html=1;align=center;verticalAlign=middle;resizable=0;points=[];autosize=1;strokeColor=none;fillColor=none;fontColor=#393C56;fontSize=25;fontStyle=1" vertex="1" parent="1">
          <mxGeometry x="310" y="300" width="60" height="40" as="geometry" />
        </mxCell>
        <mxCell id="1JcprI2mjeJq7GM3SsAT-80" value="0..*" style="text;html=1;align=center;verticalAlign=middle;resizable=0;points=[];autosize=1;strokeColor=none;fillColor=none;fontColor=#393C56;fontSize=25;fontStyle=1" vertex="1" parent="1">
          <mxGeometry x="10" y="395" width="60" height="40" as="geometry" />
        </mxCell>
        <mxCell id="1JcprI2mjeJq7GM3SsAT-81" value="Note" style="swimlane;fontStyle=1;align=center;verticalAlign=top;childLayout=stackLayout;horizontal=1;startSize=26;horizontalStack=0;resizeParent=1;resizeParentMax=0;resizeLast=0;collapsible=1;marginBottom=0;whiteSpace=wrap;html=1;strokeColor=#E07A5F;fontColor=#393C56;fillColor=#F2CC8F;" vertex="1" parent="1">
          <mxGeometry x="160" y="509" width="160" height="138" as="geometry" />
        </mxCell>
        <mxCell id="1JcprI2mjeJq7GM3SsAT-82" value="+ etudId: String" style="text;strokeColor=none;fillColor=none;align=left;verticalAlign=top;spacingLeft=4;spacingRight=4;overflow=hidden;rotatable=0;points=[[0,0.5],[1,0.5]];portConstraint=eastwest;whiteSpace=wrap;html=1;fontColor=#393C56;" vertex="1" parent="1JcprI2mjeJq7GM3SsAT-81">
          <mxGeometry y="26" width="160" height="26" as="geometry" />
        </mxCell>
        <mxCell id="1JcprI2mjeJq7GM3SsAT-137" value="+ examId: String" style="text;strokeColor=none;fillColor=none;align=left;verticalAlign=top;spacingLeft=4;spacingRight=4;overflow=hidden;rotatable=0;points=[[0,0.5],[1,0.5]];portConstraint=eastwest;whiteSpace=wrap;html=1;labelBackgroundColor=none;fontColor=#393C56;rounded=0;" vertex="1" parent="1JcprI2mjeJq7GM3SsAT-81">
          <mxGeometry y="52" width="160" height="26" as="geometry" />
        </mxCell>
        <mxCell id="1JcprI2mjeJq7GM3SsAT-138" value="+ value: double" style="text;strokeColor=none;fillColor=none;align=left;verticalAlign=top;spacingLeft=4;spacingRight=4;overflow=hidden;rotatable=0;points=[[0,0.5],[1,0.5]];portConstraint=eastwest;whiteSpace=wrap;html=1;labelBackgroundColor=none;fontColor=#393C56;rounded=0;" vertex="1" parent="1JcprI2mjeJq7GM3SsAT-81">
          <mxGeometry y="78" width="160" height="26" as="geometry" />
        </mxCell>
        <mxCell id="1JcprI2mjeJq7GM3SsAT-83" value="" style="line;strokeWidth=1;fillColor=none;align=left;verticalAlign=middle;spacingTop=-1;spacingLeft=3;spacingRight=3;rotatable=0;labelPosition=right;points=[];portConstraint=eastwest;strokeColor=inherit;fontColor=#393C56;" vertex="1" parent="1JcprI2mjeJq7GM3SsAT-81">
          <mxGeometry y="104" width="160" height="8" as="geometry" />
        </mxCell>
        <mxCell id="1JcprI2mjeJq7GM3SsAT-84" value="+ method(type): type" style="text;strokeColor=none;fillColor=none;align=left;verticalAlign=top;spacingLeft=4;spacingRight=4;overflow=hidden;rotatable=0;points=[[0,0.5],[1,0.5]];portConstraint=eastwest;whiteSpace=wrap;html=1;fontColor=#393C56;" vertex="1" parent="1JcprI2mjeJq7GM3SsAT-81">
          <mxGeometry y="112" width="160" height="26" as="geometry" />
        </mxCell>
        <mxCell id="1JcprI2mjeJq7GM3SsAT-85" value="" style="endArrow=none;dashed=1;html=1;dashPattern=1 3;strokeWidth=2;strokeColor=#E07A5F;fontColor=#393C56;fillColor=#F2CC8F;exitX=0.587;exitY=-0.035;exitDx=0;exitDy=0;exitPerimeter=0;" edge="1" parent="1" source="1JcprI2mjeJq7GM3SsAT-81">
          <mxGeometry width="50" height="50" relative="1" as="geometry">
            <mxPoint x="260" y="480" as="sourcePoint" />
            <mxPoint x="210" y="386" as="targetPoint" />
            <Array as="points">
              <mxPoint x="320" y="469" />
              <mxPoint x="320" y="386" />
            </Array>
          </mxGeometry>
        </mxCell>
        <mxCell id="1JcprI2mjeJq7GM3SsAT-91" value="1..*" style="text;html=1;align=center;verticalAlign=middle;resizable=0;points=[];autosize=1;strokeColor=none;fillColor=none;fontColor=#393C56;fontStyle=1;fontSize=25;" vertex="1" parent="1">
          <mxGeometry x="430" y="440" width="60" height="40" as="geometry" />
        </mxCell>
        <mxCell id="1JcprI2mjeJq7GM3SsAT-61" value="1" style="endArrow=open;html=1;endSize=12;startArrow=diamondThin;startSize=14;startFill=1;edgeStyle=orthogonalEdgeStyle;align=left;verticalAlign=bottom;strokeColor=default;fontColor=#393C56;fillColor=#F2CC8F;fontSize=21;fontStyle=1;labelBackgroundColor=none;entryX=0.75;entryY=0;entryDx=0;entryDy=0;" edge="1" parent="1" target="1JcprI2mjeJq7GM3SsAT-43">
          <mxGeometry x="-0.6735" y="30" relative="1" as="geometry">
            <mxPoint x="660" y="350" as="sourcePoint" />
            <mxPoint x="520" y="536" as="targetPoint" />
            <Array as="points">
              <mxPoint x="670" y="350" />
              <mxPoint x="670" y="474" />
              <mxPoint x="510" y="474" />
            </Array>
            <mxPoint as="offset" />
          </mxGeometry>
        </mxCell>
      </root>
    </mxGraphModel>
  </diagram>
</mxfile>
